<svg xmlns="http://www.w3.org/2000/svg" width="240" height="240" fill="none"><circle cx="120.494" cy="120.494" r="103.704" stroke="#1A1717" stroke-width="6"/><rect width="13.803" height="13.803" x="113.593" y="9.889" fill="#FAF7F7" stroke="#1A1717" stroke-width="2" rx="1"/><circle cx="162.469" cy="6.42" r="5.42" fill="#FAF7F7" stroke="#1A1717" stroke-width="2"/><circle cx="78.518" cy="6.42" r="5.42" fill="#FAF7F7" stroke="#1A1717" stroke-width="2"/><rect width="13.803" height="13.803" x="9.889" y="113.593" fill="#FAF7F7" stroke="#1A1717" stroke-width="2" rx="1"/><circle cx="6.42" cy="78.519" r="5.42" fill="#FAF7F7" stroke="#1A1717" stroke-width="2" transform="rotate(-90 6.42 78.519)"/><circle cx="6.42" cy="162.469" r="5.42" fill="#FAF7F7" stroke="#1A1717" stroke-width="2" transform="rotate(-90 6.42 162.469)"/><rect width="13.803" height="13.803" x="217.296" y="113.593" fill="#FAF7F7" stroke="#1A1717" stroke-width="2" rx="1"/><circle cx="233.58" cy="78.519" r="5.42" fill="#FAF7F7" stroke="#1A1717" stroke-width="2" transform="rotate(-90 233.58 78.519)"/><circle cx="233.58" cy="162.469" r="5.42" fill="#FAF7F7" stroke="#1A1717" stroke-width="2" transform="rotate(-90 233.58 162.469)"/><rect width="13.803" height="13.803" x="113.593" y="217.296" fill="#FAF7F7" stroke="#1A1717" stroke-width="2" rx="1"/><circle cx="162.469" cy="233.58" r="5.42" fill="#FAF7F7" stroke="#1A1717" stroke-width="2"/><circle cx="78.518" cy="233.58" r="5.42" fill="#FAF7F7" stroke="#1A1717" stroke-width="2"/></svg>