<svg xmlns="http://www.w3.org/2000/svg" width="240" height="241" fill="none"><circle cx="120.408" cy="120.366" r="108.841" stroke="#1A1717" stroke-width="6"/><rect width="14.642" height="14.642" x="113.087" y="4.204" fill="#FAF7F7" stroke="#1A1717" stroke-width="1.944" rx=".972"/><rect width="14.642" height="14.642" x="196.852" y="33.266" fill="#FAF7F7" stroke="#1A1717" stroke-width="1.944" rx=".972" transform="rotate(45 196.852 33.266)"/><circle cx="229.947" cy="75.046" r="5.766" fill="#FAF7F7" stroke="#1A1717" stroke-width="1.944" transform="rotate(45 229.947 75.046)"/><circle cx="166.127" cy="10.957" r="5.766" fill="#FAF7F7" stroke="#1A1717" stroke-width="1.944" transform="rotate(45 166.127 10.957)"/><rect width="14.642" height="14.642" x="4.246" y="113.045" fill="#FAF7F7" stroke="#1A1717" stroke-width="1.944" rx=".972"/><rect width="14.642" height="14.642" x="42.98" y="33.291" fill="#FAF7F7" stroke="#1A1717" stroke-width="1.944" rx=".972" transform="rotate(45 42.98 33.29)"/><circle cx="75.849" cy="10.481" r="5.766" fill="#FAF7F7" stroke="#1A1717" stroke-width="1.944" transform="rotate(-45 75.849 10.48)"/><circle cx="10.511" cy="75.879" r="5.766" fill="#FAF7F7" stroke="#1A1717" stroke-width="1.944" transform="rotate(-45 10.51 75.88)"/><rect width="14.642" height="14.642" x="221.928" y="113.045" fill="#FAF7F7" stroke="#1A1717" stroke-width="1.944" rx=".972"/><rect width="14.642" height="14.642" x="196.852" y="187.19" fill="#FAF7F7" stroke="#1A1717" stroke-width="1.944" rx=".972" transform="rotate(45 196.852 187.19)"/><circle cx="229.857" cy="165.906" r="5.766" fill="#FAF7F7" stroke="#1A1717" stroke-width="1.944" transform="rotate(-45 229.857 165.906)"/><circle cx="166.038" cy="229.814" r="5.766" fill="#FAF7F7" stroke="#1A1717" stroke-width="1.944" transform="rotate(-45 166.038 229.814)"/><rect width="14.642" height="14.642" x="113.087" y="221.886" fill="#FAF7F7" stroke="#1A1717" stroke-width="1.944" rx=".972"/><rect width="14.642" height="14.642" x="42.928" y="187.19" fill="#FAF7F7" stroke="#1A1717" stroke-width="1.944" rx=".972" transform="rotate(45 42.928 187.19)"/><circle cx="75.177" cy="229.994" r="5.766" fill="#FAF7F7" stroke="#1A1717" stroke-width="1.944" transform="rotate(45 75.177 229.994)"/><circle cx="10.999" cy="166.175" r="5.766" fill="#FAF7F7" stroke="#1A1717" stroke-width="1.944" transform="rotate(45 11 166.175)"/></svg>