<svg width="380" height="297" viewBox="0 0 380 297" fill="none" xmlns="http://www.w3.org/2000/svg">
<g clip-path="url(#clip0_28_122)">
<path d="M0 288.572L183.087 1.61902L281.222 64.0445L137.964 288.572H0Z" fill="#FBBC04"/>
<path d="M179.217 0.122437H291.916V288.572H179.217V0.122437Z" fill="#1A73E8"/>
<path d="M62.4305 116.47C93.2818 116.47 118.292 91.4983 118.292 60.6938C118.292 29.8894 93.2818 4.91748 62.4305 4.91748C31.5792 4.91748 6.56934 29.8894 6.56934 60.6938C6.56934 91.4983 31.5792 116.47 62.4305 116.47Z" fill="#EA4335"/>
<path d="M372.184 208.426C372.184 229.682 363.727 250.067 348.674 265.098C333.621 280.128 313.204 288.572 291.916 288.572V128.287C313.203 128.287 333.619 136.73 348.672 151.758C363.725 166.787 372.182 187.171 372.184 208.426Z" fill="#34A853"/>
<path d="M291.916 128.287V288.572C270.762 288.369 250.544 279.835 235.658 264.828C220.772 249.82 212.421 229.552 212.421 208.429C212.421 187.307 220.772 167.039 235.658 152.031C250.544 137.024 270.762 128.49 291.916 128.287Z" fill="#0D652D"/>
<path d="M353.691 66.6058C353.689 82.964 347.18 98.6516 335.595 110.219C324.011 121.786 308.299 128.285 291.916 128.287V4.91748C308.3 4.91946 324.013 11.4196 335.598 22.9882C347.183 34.5568 353.691 50.2463 353.691 66.6058Z" fill="#1A73E8"/>
<path d="M291.916 4.91748V128.287C275.649 128.108 260.109 121.531 248.669 109.982C237.229 98.4333 230.812 82.8454 230.813 66.6021C230.812 50.3587 237.229 34.7708 248.669 23.2221C260.109 11.6734 275.649 5.09593 291.916 4.91748Z" fill="#174EA6"/>
</g>
<defs>
<clipPath id="clip0_28_122">
<rect width="380" height="296.253" fill="white" transform="translate(0 0.122437)"/>
</clipPath>
</defs>
</svg>
